{
	"asset":{
		"version":"2.0",
		"generator":"Blockbench 4.4.1 glTF exporter"
	},
	"scenes":[
		{"nodes":[1],"name":"blockbench_export"}
	],
	"scene":0,
	"nodes":[
		{"name":"cube","mesh":0},
		{"children":[0]}
	],
	"bufferViews":[
		{"buffer":0,"byteOffset":0,"byteLength":216,"target":34962,"byteStride":12},
		{"buffer":0,"byteOffset":216,"byteLength":216,"target":34962,"byteStride":12},
		{"buffer":0,"byteOffset":432,"byteLength":144,"target":34962,"byteStride":8},
		{"buffer":0,"byteOffset":576,"byteLength":36,"target":34963},
		{"buffer":0,"byteOffset":612,"byteLength":12,"target":34963}
	],
	"buffers":[
		{
			"byteLength":624,
			"uri":"data:application/octet-stream;base64,"
		}
	],
	"accessors":[
		{"bufferView":0,"componentType":5126,"count":18,"max":[0.5,1,0.5],"min":[-0.5,0,-0.5],"type":"VEC3"},
		{"bufferView":1,"componentType":5126,"count":18,"max":[1,0.7071067690849304,1],"min":[-1,-1,-0.7071067690849304],"type":"VEC3"},
		{"bufferView":2,"componentType":5126,"count":18,"max":[1,1],"min":[0,0],"type":"VEC2"},
		{"bufferView":3,"componentType":5123,"count":18,"max":[13],"min":[0],"type":"SCALAR"},
		{"bufferView":4,"componentType":5123,"count":6,"max":[17],"min":[14],"type":"SCALAR"}
	],
	"materials":[
		{"pbrMetallicRoughness":{"metallicFactor":0,"roughnessFactor":1,"baseColorTexture":{"index":0}},"alphaMode":"MASK","alphaCutoff":0.05,"doubleSided":true},
		{"pbrMetallicRoughness":{"metallicFactor":0,"roughnessFactor":1,"baseColorTexture":{"index":1}},"alphaMode":"MASK","alphaCutoff":0.05,"doubleSided":true}
	],
	"textures":[
		{"sampler":0,"source":0,"name":"checker.png"},
		{"sampler":1,"source":1,"name":"checker.png"}
	],
	"samplers":[
		{"magFilter":9728,"minFilter":9728,"wrapS":33071,"wrapT":33071},
		{"magFilter":9728,"minFilter":9728,"wrapS":33071,"wrapT":33071}
	],
	"images":[
		{"mimeType":"image/png","uri":"#side"},
		{"mimeType":"image/png","uri":"#top"}
	],
	"meshes":[
		{"primitives":[
			{"mode":4,"attributes":{"POSITION":0,"NORMAL":1,"TEXCOORD_0":2},"indices":3,"material":0},
			{"mode":4,"attributes":{"POSITION":0,"NORMAL":1,"TEXCOORD_0":2},"indices":4,"material":1}
		]}
	]
}