{"asset":{"version":"2.0","generator":"Blockbench 4.7.4 glTF exporter"},"scenes":[{"nodes":[1],"name":"blockbench_export"}],"scene":0,"nodes":[{"name":"cylinder","mesh":0},{"children":[0]}],"bufferViews":[{"buffer":0,"byteOffset":0,"byteLength":960,"target":34962,"byteStride":12},{"buffer":0,"byteOffset":960,"byteLength":960,"target":34962,"byteStride":12},{"buffer":0,"byteOffset":1920,"byteLength":640,"target":34962,"byteStride":8},{"buffer":0,"byteOffset":2560,"byteLength":8,"target":34963},{"buffer":0,"byteOffset":2568,"byteLength":12,"target":34963},{"buffer":0,"byteOffset":2580,"byteLength":12,"target":34963},{"buffer":0,"byteOffset":2592,"byteLength":12,"target":34963},{"buffer":0,"byteOffset":2604,"byteLength":12,"target":34963},{"buffer":0,"byteOffset":2616,"byteLength":12,"target":34963},{"buffer":0,"byteOffset":2628,"byteLength":12,"target":34963},{"buffer":0,"byteOffset":2640,"byteLength":12,"target":34963},{"buffer":0,"byteOffset":2652,"byteLength":12,"target":34963},{"buffer":0,"byteOffset":2664,"byteLength":12,"target":34963},{"buffer":0,"byteOffset":2676,"byteLength":12,"target":34963},{"buffer":0,"byteOffset":2688,"byteLength":12,"target":34963},{"buffer":0,"byteOffset":2700,"byteLength":12,"target":34963},{"buffer":0,"byteOffset":2712,"byteLength":12,"target":34963},{"buffer":0,"byteOffset":2724,"byteLength":12,"target":34963},{"buffer":0,"byteOffset":2736,"byteLength":12,"target":34963},{"buffer":0,"byteOffset":2748,"byteLength":8,"target":34963}],"buffers":[{"byteLength":2756,"uri":"data:application/octet-stream;base64,"}],"accessors":[{"bufferView":0,"componentType":5126,"count":80,"max":[0.5,1,0.5],"min":[-0.5,0,-0.5],"type":"VEC3"},{"bufferView":1,"componentType":5126,"count":80,"max":[1,1,1],"min":[-1,-1,-1],"type":"VEC3"},{"bufferView":2,"componentType":5126,"count":80,"max":[1,1],"min":[-0.00009587909880792722,-0.00009584426879882812],"type":"VEC2"},{"bufferView":3,"componentType":5123,"count":3,"max":[2],"min":[0],"type":"SCALAR"},{"bufferView":4,"componentType":5123,"count":6,"max":[6],"min":[3],"type":"SCALAR"},{"bufferView":5,"componentType":5123,"count":6,"max":[12],"min":[7],"type":"SCALAR"},{"bufferView":6,"componentType":5123,"count":6,"max":[16],"min":[13],"type":"SCALAR"},{"bufferView":7,"componentType":5123,"count":6,"max":[22],"min":[17],"type":"SCALAR"},{"bufferView":8,"componentType":5123,"count":6,"max":[26],"min":[23],"type":"SCALAR"},{"bufferView":9,"componentType":5123,"count":6,"max":[32],"min":[27],"type":"SCALAR"},{"bufferView":10,"componentType":5123,"count":6,"max":[36],"min":[33],"type":"SCALAR"},{"bufferView":11,"componentType":5123,"count":6,"max":[42],"min":[37],"type":"SCALAR"},{"bufferView":12,"componentType":5123,"count":6,"max":[46],"min":[43],"type":"SCALAR"},{"bufferView":13,"componentType":5123,"count":6,"max":[52],"min":[47],"type":"SCALAR"},{"bufferView":14,"componentType":5123,"count":6,"max":[56],"min":[53],"type":"SCALAR"},{"bufferView":15,"componentType":5123,"count":6,"max":[62],"min":[57],"type":"SCALAR"},{"bufferView":16,"componentType":5123,"count":6,"max":[66],"min":[63],"type":"SCALAR"},{"bufferView":17,"componentType":5123,"count":6,"max":[72],"min":[67],"type":"SCALAR"},{"bufferView":18,"componentType":5123,"count":6,"max":[76],"min":[73],"type":"SCALAR"},{"bufferView":19,"componentType":5123,"count":3,"max":[79],"min":[77],"type":"SCALAR"}],"materials":[{"pbrMetallicRoughness":{"metallicFactor":0,"roughnessFactor":1,"baseColorTexture":{"index":0}},"alphaMode":"MASK","alphaCutoff":0.05,"doubleSided":true},{"pbrMetallicRoughness":{"metallicFactor":0,"roughnessFactor":1,"baseColorTexture":{"index":1}},"alphaMode":"MASK","alphaCutoff":0.05,"doubleSided":true}],"textures":[{"sampler":0,"source":0,"name":"pillar_end.png"},{"sampler":1,"source":1,"name":"pillar.png"}],"samplers":[{"magFilter":9728,"minFilter":9728,"wrapS":33071,"wrapT":33071},{"magFilter":9728,"minFilter":9728,"wrapS":33071,"wrapT":33071}],"images":[{"mimeType":"image/png","uri":"#end"},{"mimeType":"image/png","uri":"#side"}],"meshes":[{"primitives":[{"mode":4,"attributes":{"POSITION":0,"NORMAL":1,"TEXCOORD_0":2},"indices":3,"material":0},{"mode":4,"attributes":{"POSITION":0,"NORMAL":1,"TEXCOORD_0":2},"indices":4,"material":1},{"mode":4,"attributes":{"POSITION":0,"NORMAL":1,"TEXCOORD_0":2},"indices":5,"material":0},{"mode":4,"attributes":{"POSITION":0,"NORMAL":1,"TEXCOORD_0":2},"indices":6,"material":1},{"mode":4,"attributes":{"POSITION":0,"NORMAL":1,"TEXCOORD_0":2},"indices":7,"material":0},{"mode":4,"attributes":{"POSITION":0,"NORMAL":1,"TEXCOORD_0":2},"indices":8,"material":1},{"mode":4,"attributes":{"POSITION":0,"NORMAL":1,"TEXCOORD_0":2},"indices":9,"material":0},{"mode":4,"attributes":{"POSITION":0,"NORMAL":1,"TEXCOORD_0":2},"indices":10,"material":1},{"mode":4,"attributes":{"POSITION":0,"NORMAL":1,"TEXCOORD_0":2},"indices":11,"material":0},{"mode":4,"attributes":{"POSITION":0,"NORMAL":1,"TEXCOORD_0":2},"indices":12,"material":1},{"mode":4,"attributes":{"POSITION":0,"NORMAL":1,"TEXCOORD_0":2},"indices":13,"material":0},{"mode":4,"attributes":{"POSITION":0,"NORMAL":1,"TEXCOORD_0":2},"indices":14,"material":1},{"mode":4,"attributes":{"POSITION":0,"NORMAL":1,"TEXCOORD_0":2},"indices":15,"material":0},{"mode":4,"attributes":{"POSITION":0,"NORMAL":1,"TEXCOORD_0":2},"indices":16,"material":1},{"mode":4,"attributes":{"POSITION":0,"NORMAL":1,"TEXCOORD_0":2},"indices":17,"material":0},{"mode":4,"attributes":{"POSITION":0,"NORMAL":1,"TEXCOORD_0":2},"indices":18,"material":1},{"mode":4,"attributes":{"POSITION":0,"NORMAL":1,"TEXCOORD_0":2},"indices":19,"material":0}]}]}
